<svg xmlns="http://www.w3.org/2000/svg" version="1.1" title="icons / nav / cart" fill="#828282" viewBox="0 0 48 48">
<path
      d="M19.4678446,40.537216 C20.9682258,40.537216 22.184525,39.3029486 22.184525,37.7804028 C22.184525,36.2578569 20.9682258,35.0235896 19.4678446,35.0235896 C17.9674634,35.0235896 16.7511642,36.2578569 16.7511642,37.7804028 C16.7511642,39.3029486 17.9674634,40.537216 19.4678446,40.537216 Z M19.4678446,43.3695583 C16.4259759,43.3695583 13.9600542,40.8672081 13.9600542,37.7804028 C13.9600542,34.6935974 16.4259759,32.1912472 19.4678446,32.1912472 C22.5097133,32.1912472 24.975635,34.6935974 24.975635,37.7804028 C24.975635,40.8672081 22.5097133,43.3695583 19.4678446,43.3695583 Z M36.7169045,40.537216 C38.2172857,40.537216 39.4335849,39.3029486 39.4335849,37.7804028 C39.4335849,36.2578569 38.2172857,35.0235896 36.7169045,35.0235896 C35.2165233,35.0235896 34.0002241,36.2578569 34.0002241,37.7804028 C34.0002241,39.3029486 35.2165233,40.537216 36.7169045,40.537216 Z M36.7169045,43.3695583 C33.6750358,43.3695583 31.2091141,40.8672081 31.2091141,37.7804028 C31.2091141,34.6935974 33.6750358,32.1912472 36.7169045,32.1912472 C39.7587732,32.1912472 42.2246949,34.6935974 42.2246949,37.7804028 C42.2246949,40.8672081 39.7587732,43.3695583 36.7169045,43.3695583 Z M9.15131222,13.2969909 L6.96295935,6.83234232 L2.39555501,6.83234232 C1.62481126,6.83234232 1,6.1983009 1,5.41617116 C1,4.63404143 1.62481126,4 2.39555501,4 L7.95916764,4 C8.55516953,4 9.08539417,4.38408901 9.27902207,4.95608832 L11.7911557,12.3772231 L12.4237392,14.2477565 L10.4749191,14.2530741 C9.87293609,14.2547167 9.35895112,13.869333 9.16174405,13.3278376 C9.09883346,13.1318153 9.07600949,12.9889562 9.07561669,12.840716 C9.07354425,12.0585891 9.6966732,11.4228451 10.4674142,11.420742 L45.0678746,11.3263306 C46.0020955,11.3237815 46.6749213,12.2353168 46.4098124,13.1443697 L41.2555626,30.8181858 C41.0801293,31.419743 40.5355913,31.8324839 39.9173773,31.8324839 L16.416231,31.8324839 C15.8200767,31.8324839 15.2897518,31.4482016 15.0962419,30.8759977 L9.15131222,13.2969909 Z M17.4127522,29.0001416 L38.8749938,29.0001416 L43.2017526,14.1637751 L12.4237392,14.2477565 L17.4127522,29.0001416 Z M18.3684365,25.863695 C17.8249133,25.8639667 17.3840837,25.4170653 17.3838159,24.8655128 C17.3835482,24.3139603 17.8239437,23.8666183 18.3674669,23.8663466 L37.6489323,23.8596888 C38.1924555,23.8594171 38.6332852,24.3063185 38.6335529,24.857871 C38.6338207,25.4094235 38.1934251,25.8567655 37.6499019,25.8570372 L18.3684365,25.863695 Z"
      id="Combined-Shape"
    ></path>
</svg>